Coordinates
version=1
nRows=6
nColumns=63
inDegrees=yes

Units are S.I. units (second, meters, Newtons, ...)
If the header above contains a line with 'inDegrees', this indicates whether rotational values are in degrees (yes) or radians (no).

endheader
time	pelvis_tilt	pelvis_list	pelvis_rotation	pelvis_tx	pelvis_ty	pelvis_tz	hip_flexion_r	hip_adduction_r	hip_rotation_r	knee_angle_r	knee_angle_r_beta	ankle_angle_r	subtalar_angle_r	mtp_angle_r	hip_flexion_l	hip_adduction_l	hip_rotation_l	knee_angle_l	knee_angle_l_beta	ankle_angle_l	subtalar_angle_l	mtp_angle_l	L5_S1_Flex_Ext	L5_S1_Lat_Bending	L5_S1_axial_rotation	L4_L5_Flex_Ext	L4_L5_Lat_Bending	L4_L5_axial_rotation	L3_L4_Flex_Ext	L3_L4_Lat_Bending	L3_L4_axial_rotation	L2_L3_Flex_Ext	L2_L3_Lat_Bending	L2_L3_axial_rotation	L1_L2_Flex_Ext	L1_L2_Lat_Bending	L1_L2_axial_rotation	L1_T12_Flex_Ext	L1_T12_Lat_Bending	L1_T12_axial_rotation	Abs_r3	Abs_r2	Abs_r1	Abs_t1	Abs_t2	neck_flexion	neck_bending	neck_rotation	arm_flex_r	arm_add_r	arm_rot_r	elbow_flex_r	pro_sup_r	wrist_flex_r	wrist_dev_r	arm_flex_l	arm_add_l	arm_rot_l	elbow_flex_l	pro_sup_l	wrist_flex_l	wrist_dev_l
      2.55000000	     -0.97007441	     10.20701731	     75.89019065	      0.27562503	      0.91827686	      0.66726997	     -2.53379890	     -4.72703689	     -3.61201266	     18.97181235	      0.33112059	     45.69626736	     16.70328744	      0.00000000	     -9.37888756	      4.16526252	      3.73060394	      8.61144971	      0.15029815	     34.58982715	    -15.12415230	      0.00000000	     -0.79412915	     -2.03411927	      2.86825017	     -1.47477725	     -2.70537863	      3.04751581	     -1.30467478	     -4.94575759	      3.04751581	     -0.90761021	     -4.94575759	      2.50971890	     -0.73742833	     -4.14797602	      2.33045326	     -0.45376540	     -3.15085075	      2.15118763	     -5.67238511	    -23.01036401	     15.95234698	      0.00000000	      0.00000000	      4.70804741	     25.66854118	    -27.54640618	    -38.53259769	    -72.40013680	   -102.95687584	    148.94942889	     88.27231294	     10.15479633	     34.16774887	    103.74178393	     53.94087606	    156.31024425	      0.05451108	      0.61475900	    -69.89904306	    -24.30359745
      2.56666667	     -0.72816385	     10.37328530	     75.49463998	      0.27562261	      0.91850483	      0.66680176	     -2.80980484	     -4.59479011	     -3.61399785	     18.80104258	      0.32814010	     45.60551884	     16.81728618	      0.00000000	     -9.84256995	      4.08453135	      3.93177563	      8.10462560	      0.14145240	     34.38629888	    -15.61325091	      0.00000000	     -0.81490914	     -2.00457129	      2.89284652	     -1.51336776	     -2.66607981	      3.07364943	     -1.33881422	     -4.87391463	      3.07364943	     -0.93135965	     -4.87391463	      2.53124071	     -0.75672462	     -4.08772177	      2.35043780	     -0.46563908	     -3.10508093	      2.16963489	     -5.82081448	    -22.67611133	     16.08914449	      0.00000000	      0.00000000	      4.35714658	     25.75016678	    -27.07109243	    -37.59788914	    -72.63176519	   -102.21537136	    149.01318526	     88.19145404	     10.94162486	     34.17607924	    103.86402960	     53.82609426	    155.93678881	      0.05439254	      0.61015939	    -69.89962069	    -24.31160735
      2.58333333	     -0.55499483	     10.52033231	     74.96281500	      0.27582468	      0.91863271	      0.66646988	     -3.00956014	     -4.54960265	     -3.54413447	     18.69246210	      0.32624501	     45.53245569	     16.87111001	      0.00000000	    -10.29876780	      4.10351209	      4.19829907	      7.49563253	      0.13082347	     34.03886672	    -16.33325227	      0.00000000	     -0.83825194	     -1.98833731	      2.92683728	     -1.55671768	     -2.64448863	      3.10976461	     -1.37716412	     -4.83444334	      3.10976461	     -0.95803815	     -4.83444334	      2.56098262	     -0.77840076	     -4.05461745	      2.37805529	     -0.47897716	     -3.07993450	      2.19512796	     -5.98754981	    -22.49246935	     16.27819090	      0.00000000	      0.00000000	      4.30845676	     26.06009358	    -26.54868230	    -35.48383768	    -72.87476208	   -100.63654829	    149.04650329	     88.14705123	     12.49331830	     34.18462722	    104.06234481	     53.76117378	    155.60365116	      0.05419663	      0.60251700	    -69.90038003	    -24.30669898
      2.60000000	     -0.36419849	     10.65772741	     74.39091253	      0.27606054	      0.91870755	      0.66617935	     -3.18521521	     -4.52043892	     -3.63511120	     18.63065267	      0.32516623	     45.50179648	     17.10880329	      0.00000000	    -10.74005046	      4.08330063	      3.95237870	      6.92442568	      0.12085403	     33.87551606	    -16.36394532	      0.00000000	     -0.86477682	     -1.96906950	      2.97390107	     -1.60597703	     -2.61886243	      3.15976989	     -1.42074183	     -4.78759558	      3.15976989	     -0.98835342	     -4.78759558	      2.60216344	     -0.80303175	     -4.01532652	      2.41629462	     -0.49413347	     -3.05008866	      2.23042580	     -6.17701432	    -22.27450800	     16.53994559	      0.00000000	      0.00000000	      4.49932048	     26.60523023	    -25.72384824	    -34.02626943	    -73.08102061	    -99.55217477	    149.08489283	     88.13407547	     13.38059268	     34.18703678	    104.31340835	     53.76453175	    155.11624801	      0.05406813	      0.60058434	    -69.90102501	    -24.31615814
      2.61666667	     -0.33974511	     10.70764384	     74.09964342	      0.27624670	      0.91868930	      0.66590838	     -3.26625248	     -4.57210261	     -3.72647352	     18.57228844	      0.32414758	     45.48277132	     17.06163786	      0.00000000	    -11.03256350	      4.16465359	      4.43836656	      6.39970520	      0.11169593	     33.44815234	    -17.06512011	      0.00000000	     -0.87867336	     -1.97533496	      2.95716243	     -1.63178429	     -2.62719549	      3.14198508	     -1.44357246	     -4.80282941	      3.14198508	     -1.00423578	     -4.80282941	      2.58751713	     -0.81593608	     -4.02810304	      2.40269447	     -0.50207396	     -3.05979385	      2.21787182	     -6.27627591	    -22.34538409	     16.44685028	      0.00000000	      0.00000000	      4.69767990	     26.99021688	    -25.27759722	    -30.87298893	    -73.18326277	    -96.98380850	    149.09019367	     88.10888690	     14.92153442	     34.19270969	    104.49617700	     53.72517008	    155.16152220	      0.05380452	      0.59391978	    -69.90174723	    -24.32548437
      2.63333333	     -0.27227415	     10.66177439	     73.87805751	      0.27630447	      0.91848144	      0.66546973	     -3.29469561	     -4.56025938	     -3.90856690	     18.48299750	      0.32258916	     45.51530402	     17.21781568	      0.00000000	    -11.15162463	      4.14883751	      4.38366826	      6.13875448	      0.10714148	     33.30568117	    -17.12847141	      0.00000000	     -0.88336281	     -1.96919792	      2.98113950	     -1.64049308	     -2.61903323	      3.16746071	     -1.45127677	     -4.78790782	      3.16746071	     -1.00959536	     -4.78790782	      2.60849706	     -0.82029071	     -4.01558840	      2.42217584	     -0.50475351	     -3.05028758	      2.23585462	     -6.30977224	    -22.27596069	     16.58020353	      0.00000000	      0.00000000	      5.12184248	     27.38881031	    -25.03148470	    -30.66587456	    -73.09614229	    -97.27090415	    149.18920119	     88.08243130	     15.67291122	     34.17377579	    104.74767382	     53.85565165	    155.18753435	      0.05359829	      0.59438362	    -69.90212378	    -24.34175779
